# xmcd CD database file
#
# Track frame offsets:
#	187
#	25412
#	49247
#	75837
#	97162
#	118142
#	137612
#	161197
#	183165
#	203950
#	224657
#
# Disc length: 3313 seconds
#
# Revision: 1
# Processed by: cddbd v1.5.2PL0 Copyright (c) Steve Scherf et al.
# Submitted via: CDex 1.70beta2
#
DISCID=9f0cef0b
DTITLE=宮原学 - Flash Back
DYEAR=1989
DGENRE=Rock
TTITLE0=Just Like Rain
TTITLE1=It's Just Over
TTITLE2=Fkashing Back To My Memories
TTITLE3=Midnight Call
TTITLE4=In My Dream
TTITLE5=Carry On
TTITLE6=Lookin' For Love
TTITLE7=I Can't Love You Any More
TTITLE8=Rock'n To The Free
TTITLE9=Close Your Eyes
TTITLE10=Never Let You Go
EXTD=YEAR: 1989
EXTT0=
EXTT1=
EXTT2=
EXTT3=
EXTT4=
EXTT5=
EXTT6=
EXTT7=
EXTT8=
EXTT9=
EXTT10=
PLAYORDER=
